<svg aria-hidden="true" height="30" viewBox="0 0 454 90" fill="none" xmlns="http://www.w3.org/2000/svg" class="h-full w-auto">
    <path d="M47.5993 45L0 90H90V0H0L47.5993 45Z" fill="#34D399" />
    <path
        d="M104 89.6V0H117.824V37.248H119.872L153.28 0H171.328L130.88 44.16L172.736 89.6H154.176L119.872 51.584H117.824V89.6H104Z"
        fill="white" />
    <path d="M183.125 89.6V0H196.949V89.6H183.125Z" fill="white" />
    <path
        d="M215.625 89.6V0H242.249L266.569 80.384H268.617V0H282.313V89.6H255.689L231.369 9.08801H229.321V89.6H215.625Z"
        fill="white" />
    <path
        d="M297.672 89.6V77.312H309.704V12.288H297.672V0H333.512C345.459 0 354.589 3.02934 360.904 9.08801C367.304 15.1467 370.504 24.2773 370.504 36.48V53.248C370.504 65.4507 367.304 74.5813 360.904 80.64C354.589 86.6133 345.459 89.6 333.512 89.6H297.672ZM323.656 77.056H333.64C341.405 77.056 347.165 75.0933 350.92 71.168C354.675 67.2427 356.552 61.3973 356.552 53.632V35.968C356.552 28.1173 354.675 22.272 350.92 18.432C347.165 14.592 341.405 12.672 333.64 12.672H323.656V77.056Z"
        fill="white" />
    <path
        d="M378.469 89.6L404.069 0H428.389L453.861 89.6H439.653L433.765 68.48H398.693L392.805 89.6H378.469ZM402.149 55.68H430.309L417.253 8.576H415.205L402.149 55.68Z"
        fill="white" />
</svg>
